# xmcd
#
# Track frame offsets:
#	150
#	17849
#	29811
#	46097
#	59404
#	77073
#	91320
#	104939
#	120480
#	135761
#	151177
#	168763
#	184925
#	203354
#	220975
#	240788
#	260439
#	275756
#
# Disc length: 3889 seconds
#
# Revision: 4
# Processed by: cddbd v1.5.2PL0 Copyright (c) Steve Scherf et al.
# Submitted via: EasyCDDAExtractor 15.3.0.1
#
DISCID=ee0f2f12
DTITLE=Daniela Romo - La Historia
DYEAR=2004
DGENRE=Latin
TTITLE0=Mentiras
TTITLE1=Celos
TTITLE2=La Ocasion Para Amarnos
TTITLE3=Pobre Secretaria
TTITLE4=Yo No Te Pido La Luna
TTITLE5=Dueña De Mi Corazon
TTITLE6=Prometes
TTITLE7=De Mi Enamorate
TTITLE8=Adelante Corazon
TTITLE9=Coco Loco
TTITLE10=Es Mejor Perdonar
TTITLE11=Gitana
TTITLE12=Quiero Amanecer Con Alguien
TTITLE13=Explorame
TTITLE14=Todo, Todo, Todo
TTITLE15=Duele
TTITLE16=Tampoco Fuiste Tu
TTITLE17=Que Vengan Los Bomberos
EXTD=
EXTT0=
EXTT1=
EXTT2=
EXTT3=
EXTT4=
EXTT5=
EXTT6=
EXTT7=
EXTT8=
EXTT9=
EXTT10=
EXTT11=
EXTT12=
EXTT13=
EXTT14=
EXTT15=
EXTT16=
EXTT17=
PLAYORDER=
